<svg xmlns="http://www.w3.org/2000/svg" viewBox="0 0 770 896" fill="none" role="img" aria-label="marmot">
  <path d="M334.879 0.546068C339.474 -0.0931776 354.366 -0.0319456 359.386 0.0501032C407.508 0.775072 454.698 13.4682 496.69 36.9837C525.18 28.6772 553.022 29.4279 577.116 49.1618C594.328 63.2589 604.002 83.7387 606.053 105.757C608.399 130.862 601.571 150.255 585.566 169.52L616.812 240.173C620.455 248.616 628.39 265.602 630.656 273.95C624.092 271.438 618.042 267.279 611.491 265.208C615.569 274.791 621.177 285.039 626.027 294.3C633.693 308.804 641.255 323.364 648.707 337.979C651.719 343.949 659.018 357.588 660.224 363.345C653.525 360.996 646.245 357.463 639.718 354.493C643.306 361.997 650.348 373.34 654.579 380.832C661.7 393.543 668.331 406.523 674.454 419.742C713.433 504.733 725.435 595.673 706.208 687.451C714.119 687.108 719.826 686.826 727.614 688.449C742.61 691.419 755.731 700.401 763.918 713.308C789.776 753.451 765.247 809.538 727.106 832.102C690.313 853.869 655.583 856.141 614.773 847.085C604.272 852.687 596.606 857.947 584.929 862.497C522.388 886.866 442.74 892.383 375.986 894.367C343.822 896.1 301.075 894.967 269.391 887.742C258.926 885.36 251.764 880.713 246.46 871.246C230.98 871.981 215.123 873.334 199.496 874.13C172.449 875.563 145.373 876.39 118.288 876.616C86.9935 877.008 54.6878 876.99 24.5789 869.299C-16.2233 858.872 0.836166 809.734 24.9928 791.708C32.7323 785.934 37.9149 783.038 46.4731 778.874C37.5592 762.25 32.2939 748.981 30.0737 730.061C24.6383 683.734 41.1319 641.369 81.2777 616.632C82.0468 613.864 82.6168 610.607 83.1893 607.753C68.6753 604.294 55.7556 596.034 46.5276 584.308C15.4868 545.298 32.6215 485.041 65.8795 452.123C75.0457 443.051 77.5328 438.045 83.992 427.37C88.6266 419.65 93.9022 412.334 99.7626 405.499C103.912 400.685 120.998 386.582 122.474 383.51C131.081 365.597 142.74 343.235 145.096 323.497C140.832 320.614 136.658 317.6 132.58 314.46C70.7099 266.826 53.2243 205.623 68.6012 130.403C77.2953 87.8754 98.3083 80.5167 140.12 75.8828C199.085 27.7294 259.579 7.24529 334.879 0.546068Z" fill="#492E0C"/>
  <path d="M156.401 89.5703C220.332 38.8261 301.614 15.1771 382.789 23.7028C415.149 26.9064 446.499 36.751 474.879 52.622C471.573 57.8719 465.205 68.8775 466.589 75.2068C469.932 78.9021 476.361 72.2464 479.521 69.8357C520.092 38.8898 582.033 58.7499 579.179 114.835C578.475 130.821 571.305 145.835 559.31 156.427C544.737 169.463 529.632 172.808 510.828 174.583C517.19 181.626 522.174 182.52 526.552 186.916C538.302 198.726 550.854 220.744 556.787 236.237C542.441 228.141 534.034 223.027 517.557 220.103L518.078 220.804C523.092 227.488 529.399 233.629 534.689 240.078C546.274 254.212 558.33 271.48 565.06 288.483C548.644 278.986 532.748 271.281 513.62 269.57L514.202 270.195C520.239 276.589 529.54 283.386 536.232 289.57C554.161 306.122 582.253 339.435 590.593 362.214C574.024 350.978 556.2 339.526 536.024 336.578C540.965 341.882 546.072 346.999 551.185 352.138C578.99 380.102 601.798 412.775 615.293 450.004C602.177 438.777 583.845 426.245 567.282 421.635L567.717 422.351C570.95 427.541 577.153 434.985 581.096 440.051C586.619 447.11 591.823 454.412 596.697 461.933C628.084 510.115 642.773 563.3 642.522 620.52C634.538 607.355 627.221 594.73 615.109 584.829C617.197 596.995 620.032 609.652 621.949 621.653C625.574 644.357 626.045 679.73 619.965 702.005C614.466 688.553 609.219 674.599 599.012 663.908C599.287 698.264 599.9 725.775 586.252 758.693C582.094 747.487 579.302 738.082 571.868 728.628C568.311 758.552 566.474 782.285 548.785 808.797C547.701 800.721 547.144 797.488 543.96 790.079C529.491 821.607 516.485 838.917 481.823 851.518C438.227 867.364 350.073 875.079 304.891 869.373C306.509 858.621 309.525 851.598 317.061 843.589C320.076 840.386 325.308 836.412 323.806 831.802C316.807 826.04 300.988 838.733 296.453 844.574C290.806 851.849 287.728 858.559 285.701 867.45C281.586 867.003 269.359 865.95 268.075 862.613C262.194 847.348 281.999 825.177 292.316 819.243C317.951 804.487 343.313 806.734 370.763 812.808C376.415 814.125 399.939 821.613 403.074 820.223C403.032 817.7 401.342 815.821 399.407 814.118C376.06 793.594 351.965 787.33 322.208 787.704C309.866 758.19 308.653 729.124 320.893 699.177C351.31 624.751 419.839 640.095 459.866 585.025C468.438 573.238 473.753 560.716 475.516 546.247C468.107 554.722 461.537 563.11 453.541 571.107C428.289 596.297 395.874 610.38 360.054 612.836C277.48 618.481 199.615 563.422 169.272 487.901C161.646 468.919 164.937 456.581 186.543 469.532C201.116 478.269 201.407 463.427 191.566 456.955C183.152 450.722 176.896 449.222 166.864 446.998C164.533 438.009 164.761 429.073 174.823 425.1C185.892 420.73 208.742 439.489 214.903 435.143C217.609 431.039 215.031 427.486 212.149 424.402C202.21 413.767 189.504 410.139 175.461 408.289C177.64 402.212 180.245 396.991 186.459 394.141C194.117 390.628 204.214 392.286 211.806 395.3C257.949 413.617 258.989 475.183 324.418 482.525C339.009 484.166 354.623 482.494 368.191 476.671C373.659 474.326 378.49 471.399 382.997 467.505C364.499 467.897 358.542 468.577 339.187 465.882C323.856 462.509 307.462 457.42 295.117 447.773C263.635 423.179 249.17 378.009 203.934 372.763C193.404 371.542 185.19 373.369 175.418 377.655C166.029 373.957 158.964 373.47 149.062 374.523C156.201 359.507 163.859 341.599 165.138 325.046C171.71 325.609 176.721 326.016 183.366 325.985C178.143 321.3 163.683 312.242 157.23 307.897C135.023 293.141 116.396 273.608 102.711 250.726C103.818 250.743 104.925 250.739 106.031 250.715C116.218 250.477 121.25 247.201 127.919 240.212C133.925 246.992 141.101 252.478 149.508 256.029C162.583 261.551 178.521 261.871 191.756 256.487C201.61 252.479 211.945 244.512 216.402 234.52C217.634 231.761 217.825 227.971 216.577 225.089C216.096 223.977 214.804 222.93 213.537 222.882C207.566 222.662 202.536 229.047 198.651 232.431C190.204 239.79 179.946 242.805 168.9 242.173C158.239 241.563 149.575 237.414 142.529 229.476C131.066 216.562 131.7 193.295 132.784 177.107C145.438 173.408 156.466 168.347 166.578 159.724C177.347 150.542 193.517 132.904 180.6 119.019C181.692 101.051 159.23 96.9283 156.736 89.6872L156.401 89.5703Z" fill="#FEA202"/>
  <path d="M156.736 89.6872C201.011 88.151 239.126 104.912 271.768 134.262C313.04 171.373 362.962 265.881 322.129 316.217C331.38 328.566 338.952 339.784 345.665 353.811C361.677 387.269 366.073 436.242 339.187 465.882C323.856 462.509 307.462 457.42 295.117 447.773C263.635 423.179 249.17 378.009 203.934 372.763C193.404 371.542 185.19 373.369 175.418 377.655C166.029 373.957 158.964 373.47 149.062 374.523C156.201 359.507 163.859 341.599 165.138 325.046C171.71 325.609 176.721 326.016 183.366 325.985C178.143 321.3 163.683 312.242 157.23 307.897C135.023 293.141 116.396 273.608 102.711 250.726C103.818 250.743 104.925 250.739 106.031 250.715C116.218 250.477 121.25 247.201 127.919 240.212C133.925 246.992 141.101 252.478 149.508 256.029C162.583 261.551 178.521 261.871 191.756 256.487C201.61 252.479 211.945 244.512 216.402 234.52C217.634 231.761 217.825 227.971 216.577 225.089C216.096 223.977 214.804 222.93 213.537 222.882C207.566 222.662 202.536 229.047 198.651 232.431C190.204 239.79 179.946 242.805 168.9 242.173C158.239 241.563 149.575 237.414 142.529 229.476C131.066 216.562 131.7 193.295 132.784 177.107C145.438 173.408 156.466 168.347 166.578 159.724C177.347 150.542 193.517 132.904 180.6 119.019C181.692 101.051 159.23 96.9283 156.736 89.6872Z" fill="#FEEBBB"/>
  <path d="M333.21 85.7966C355.241 82.1491 376.029 97.1316 379.537 119.184C383.046 141.237 367.934 161.931 345.861 165.301C323.979 168.64 303.509 153.69 300.032 131.833C296.554 109.976 311.375 89.4111 333.21 85.7966Z" fill="#492E0C"/>
  <path d="M330.979 99.0028C337.373 97.131 344.079 100.774 345.989 107.158C347.9 113.541 344.293 120.268 337.921 122.215C331.496 124.177 324.701 120.536 322.776 114.1C320.852 107.664 324.532 100.891 330.979 99.0028Z" fill="#FEFEFE"/>
  <path d="M516.528 85.5431C523.552 84.6259 530.703 85.3319 536.924 88.9647C543.2 92.6698 547.719 98.7493 549.458 105.829C554.522 126.162 539.073 143.11 520.178 147.475C473.428 152.731 475.29 93.2325 516.528 85.5431Z" fill="#492E0C"/>
  <path d="M173.436 540.657C174.881 542.237 181.19 551.409 183.007 553.864C211.967 593.199 253.443 621.518 300.622 634.162C312.848 637.456 322.862 638.938 335.371 640.812C293.386 681.009 280.191 737.654 301.307 791.971C281.147 799.325 268.851 808.234 256.298 825.495C253.19 830.675 251.309 834.3 248.78 839.774C247.809 839.59 246.84 839.388 245.875 839.174C233.432 836.443 221.99 832.445 210.273 827.583C119.891 790.055 84.3227 701.491 105.359 609.394C143.638 600.92 160.931 575.742 173.436 540.657Z" fill="#FEEBBB"/>
  <path d="M154.165 393.586C156.441 393.397 157.297 393.332 158.734 394.511C158.87 396.936 155.316 405.929 154.412 411.172C145.412 414.05 128.586 419.411 128.234 431.631C128.191 433.119 129.135 433.715 130.126 434.545C134.198 435.353 140.761 430.63 146.649 428.911L147.591 428.642C145.364 437.593 144.557 441.047 146.397 450.236C140.28 453.257 120.642 465.331 130.255 473.267C134.617 474.24 139.018 470.371 144.258 468.276L145.082 467.958C145.472 492.701 158.451 495.855 148.682 525.735C141.155 548.758 131.036 566.986 109.036 579.11C78.7593 592.421 54.9253 572.43 50.968 541.974C47.7302 517.053 58.593 491.611 73.8204 472.465C78.9411 466.023 85.6159 460.763 90.7519 454.34C92.4951 452.15 96.7837 443.676 98.3512 440.857C101.683 434.824 105.472 429.056 109.687 423.603C120.687 409.229 135.653 396.074 154.165 393.586Z" fill="#FEA202"/>
  <path d="M72.1231 793.447C112.803 788.469 143.414 815.557 168.772 843.282C139.104 851.389 95.6252 853.912 65.1067 852.167C61.0165 852.051 56.5388 851.524 52.4302 851.126C53.9046 841.997 56.6183 835.488 62.9165 828.679C65.9278 825.428 71.3069 820.799 71.6388 816.359C68.8822 810.8 60.992 814.737 56.9116 816.947C43.8493 824.032 37.9528 834.888 33.7598 848.72C21.9282 846.16 16.9 841.923 21.9772 828.948C30.359 807.536 49.8689 795.902 72.1231 793.447Z" fill="#FEA202"/>
  <path d="M708.663 709.463C710.366 709.328 712.068 709.224 713.776 709.133C736.885 708.03 752.29 725.346 752.762 747.475C753.117 764.405 746.351 780.184 734.784 792.394C718.179 809.93 695.064 817.749 671.319 818.423L678.22 813.347C690.998 803.752 701.763 790.71 706.698 775.378C691.66 783.393 683.988 789.357 666.384 792.461C682.487 767.479 692.842 739.889 701.059 711.502C703.563 710.621 706.079 710.082 708.663 709.463Z" fill="#FEA202"/>
  <path d="M75.7314 645.526C76.724 647.1 76.1802 655.55 76.0578 657.877C73.7512 701.938 84.8358 738.444 106.152 776.431C97.6373 774.19 91.1597 773.345 82.5182 772.5C77.7924 772.347 71.4924 772.837 66.654 773.082C62.9765 767.179 59.5317 761.503 56.8394 755.074C41.2777 717.913 46.6378 674.121 75.7314 645.526Z" fill="#FEA202"/>
  <path d="M85.3005 148.729C86.2527 149.489 86.0702 149.225 86.6917 150.115C95.793 163.155 100.881 168.94 115.251 176.142C114.234 191.304 115.174 206.535 118.047 221.458C116.726 225.539 116.074 226.916 113.462 230.322C106.413 235.594 95.9675 233.695 92.0206 226.581C81.2048 207.089 81.7185 170.396 85.3005 148.729Z" fill="#FEEBBB"/>
  <path d="M156.401 89.5703L156.736 89.6872C159.23 96.9283 181.692 101.051 180.6 119.019L180.324 118.845C157.38 104.619 120.079 105.14 94.5555 111.022C106.954 93.6978 136.773 89.7938 156.401 89.5703Z" fill="#FEFEFE"/>
</svg>
